<?xml version="1.0" encoding="UTF-8"?>
<svg version="1.1" xmlns="http://www.w3.org/2000/svg" width="600" height="600">
<path d="M0 0 C198 0 396 0 600 0 C600 198 600 396 600 600 C402 600 204 600 0 600 C0 402 0 204 0 0 Z " fill="#FEFEFE" transform="translate(0,0)"/>
<path d="M0 0 C5.97546071 3.21103687 11.67942722 6.66183809 17.2890625 10.47265625 C18.87498494 11.53973162 20.46126136 12.60628104 22.04785156 13.67236328 C22.86274048 14.22096008 23.67762939 14.76955688 24.51721191 15.33477783 C28.60807609 18.07854712 32.72176779 20.78744571 36.8359375 23.49609375 C37.67892395 24.05151352 38.5219104 24.60693329 39.39044189 25.17918396 C41.14410984 26.33447655 42.89791695 27.48955793 44.65185547 28.6444397 C47.45961269 30.4932134 50.26696126 32.34260626 53.07421875 34.19213867 C57.02946612 36.79792613 60.9848721 39.40347253 64.94042969 42.00878906 C74.00449392 47.97884341 83.06788522 53.94991861 92.13067627 59.92190552 C97.65576155 63.56280844 97.65576155 63.56280844 103.18423462 67.19856262 C104.87063301 68.31327046 106.55086871 69.43736861 108.22421265 70.57157898 C111.69680762 72.91465706 115.05674018 75.11297191 118.87988281 76.83935547 C122.46298509 78.60879519 124.57912961 79.80813502 127 83 C128.87945039 89.97368083 128.12490254 97.37213606 127.75 104.5 C127.68975412 106.4868184 127.63501041 108.47381174 127.5859375 110.4609375 C127.45419814 115.31163233 127.24750959 120.15388918 127 125 C122.08223207 123.35532201 118.1313401 120.56128508 113.88671875 117.6640625 C112.26911072 116.57265908 110.65109605 115.48185816 109.03271484 114.39160156 C108.20092712 113.82977173 107.3691394 113.26794189 106.512146 112.68908691 C102.51310288 110.00025776 98.48575124 107.35500939 94.45703125 104.7109375 C93.66416718 104.18985413 92.8713031 103.66877075 92.05441284 103.13189697 C89.64080564 101.54571015 87.22671321 99.96026429 84.8125 98.375 C66.77630747 86.53055224 66.77630747 86.53055224 58.5234375 81.015625 C49.65161592 75.08709301 40.73078373 69.23330354 31.8125 63.375 C21.52102094 56.61401268 11.2315132 49.85153924 1 43 C-8.65810274 48.42125038 -17.81993921 54.44287088 -27 60.625 C-30.16383505 62.74838008 -33.3296912 64.86873215 -36.49609375 66.98828125 C-37.32539902 67.54370102 -38.15470428 68.09912079 -39.00914001 68.67137146 C-45.66228333 73.12087278 -52.3439487 77.52596231 -59.03515625 81.91796875 C-60.03815765 82.57671997 -61.04115906 83.23547119 -62.07455444 83.91418457 C-66.05558845 86.52823484 -70.03695009 89.14174807 -74.02270508 91.74859619 C-76.79969848 93.56503013 -79.57388539 95.38568162 -82.34765625 97.20703125 C-83.18039566 97.74974167 -84.01313507 98.29245209 -84.87110901 98.85160828 C-85.63688766 99.35537491 -86.40266632 99.85914154 -87.19165039 100.37817383 C-88.19126549 101.03237053 -88.19126549 101.03237053 -89.21107483 101.69978333 C-90.99765728 102.99829727 -92.48564427 104.39665608 -94 106 C-89.9741415 108.74339861 -85.93574654 111.46680766 -81.88452148 114.17260742 C-80.5085089 115.09562376 -79.13606377 116.0239818 -77.76733398 116.95776367 C-75.7980659 118.29989451 -73.81672449 119.62222817 -71.83203125 120.94140625 C-71.22349808 121.36216934 -70.6149649 121.78293243 -69.98799133 122.21644592 C-66.5568272 124.49144053 -66.5568272 124.49144053 -62.56445312 124.76547241 C-59.87665518 123.96318238 -58.04709146 122.96473699 -55.73901367 121.38305664 C-54.93014206 120.83480728 -54.12127045 120.28655792 -53.28788757 119.72169495 C-52.42331436 119.12388718 -51.55874115 118.52607941 -50.66796875 117.91015625 C-49.75856033 117.29160263 -48.84915192 116.67304901 -47.91218567 116.03575134 C-44.99864945 114.05231853 -42.09274031 112.05805999 -39.1875 110.0625 C-31.80977882 105.01471701 -24.42058875 99.98459634 -17 95 C-16.19177795 94.45559265 -15.38355591 93.9111853 -14.55084229 93.35028076 C-12.35358721 91.88101142 -10.14338306 90.43440942 -7.92578125 88.99609375 C-7.28996628 88.568694 -6.65415131 88.14129425 -5.99906921 87.70094299 C-1.65854269 84.93629502 -1.65854269 84.93629502 1.42834473 85.23490906 C4.1553602 86.04622108 6.0125716 87.07662468 8.35473633 88.68115234 C9.17922775 89.23920563 10.00371918 89.79725891 10.85319519 90.3722229 C11.73308609 90.97899872 12.61297699 91.58577454 13.51953125 92.2109375 C15.41835304 93.49900579 17.31761585 94.78642416 19.21728516 96.07324219 C20.18249084 96.73030151 21.14769653 97.38736084 22.14215088 98.06433105 C26.46707688 100.99367568 30.83162434 103.86139199 35.19921875 106.7265625 C36.91969413 107.85816842 38.64007037 108.98992507 40.36035156 110.12182617 C41.22857544 110.69274994 42.09679932 111.26367371 42.99133301 111.85189819 C55.56042729 120.11781193 68.11989626 128.39725563 80.62890625 136.75390625 C81.56913132 137.38190125 82.50935638 138.00989624 83.47807312 138.65692139 C87.95237985 141.64654629 92.42437204 144.63956405 96.89331055 147.63720703 C98.12195076 148.45742844 98.12195076 148.45742844 99.37541199 149.29421997 C100.97241999 150.36511793 102.5635962 151.44477147 104.14839172 152.53366089 C107.90743085 155.08875615 111.58580906 157.35169776 115.71679688 159.2578125 C125.99997249 164.19171472 125.99997249 164.19171472 127.78747559 169.21139526 C128.97072643 175.6784813 128.46107024 182.10803308 128 188.625 C127.9196397 190.60257614 127.84665345 192.58046647 127.78125 194.55859375 C127.60585627 199.38021905 127.33059751 204.18662744 127 209 C122.36902315 207.39660566 118.56442016 204.93268428 114.50390625 202.25390625 C113.76709122 201.77240616 113.03027618 201.29090607 112.27113342 200.79481506 C101.86877263 193.97848087 91.54578399 187.04087548 81.2175293 180.11303711 C71.82520752 173.81569127 62.41951942 167.57224998 52.80021667 161.62623596 C45.16274428 156.89143291 37.7118449 151.88017063 30.25 146.875 C28.83478477 145.92816214 27.41942039 144.98154718 26.00390625 144.03515625 C25.31018921 143.57095276 24.61647217 143.10674927 23.9017334 142.628479 C22.53418981 141.71422053 21.16579934 140.80122737 19.79650879 139.8895874 C16.65671188 137.79609998 13.53605817 135.68419188 10.45507812 133.50488281 C9.39224609 132.76334961 8.32941406 132.02181641 7.234375 131.2578125 C6.31366211 130.60184082 5.39294922 129.94586914 4.44433594 129.27001953 C2.14445963 127.80019282 2.14445963 127.80019282 -0.11035156 128.17114258 C-2.00795081 129.00348747 -3.71783167 129.89530315 -5.46875 131.00390625 C-6.11714844 131.41141113 -6.76554687 131.81891602 -7.43359375 132.23876953 C-8.11550781 132.67560059 -8.79742187 133.11243164 -9.5 133.5625 C-10.20253906 134.00706543 -10.90507812 134.45163086 -11.62890625 134.90966797 C-17.81771661 138.84225822 -23.93093881 142.8849926 -30 147 C-26.22543347 151.33762342 -21.46173995 154.00609563 -16.625 157 C-7.42279142 162.77606025 1.65798184 168.70894679 10.6875 174.75 C11.32257477 175.17457489 11.95764954 175.59914978 12.61196899 176.03659058 C16.45962883 178.60924525 20.3053503 181.18478409 24.1505127 183.76116943 C39.42565365 193.99282199 54.73871203 204.1630326 70.125 214.22680664 C80.51499965 221.02302247 90.89378287 227.8361971 101.26556396 234.66018677 C103.12140358 235.88095057 104.97756114 237.10123118 106.83404541 238.3210144 C109.44356882 240.03568367 112.05199746 241.75200597 114.66015625 243.46875 C115.44426376 243.98353409 116.22837128 244.49831818 117.03623962 245.02870178 C117.76428299 245.50842941 118.49232635 245.98815704 119.24243164 246.48242188 C119.87443985 246.89810425 120.50644806 247.31378662 121.15760803 247.74206543 C121.76559738 248.15718384 122.37358673 248.57230225 123 249 C123.71733307 249.45432907 124.43466614 249.90865814 125.17373657 250.37675476 C127.45805165 252.40713193 127.63644483 253.48677463 127.9777832 256.48950195 C128.08254974 257.39999802 128.18731628 258.31049408 128.29525757 259.24858093 C131.44379983 296.08742792 131.44379983 296.08742792 124.11425781 305.22509766 C116.93161533 312.47127799 107.30389052 316.85528433 98.13476562 321.04736328 C92.77554534 323.51405338 88.02802132 326.71136985 83.1875 330.0625 C81.38885757 331.23835318 79.58650676 332.40854584 77.78125 333.57421875 C68.22194547 339.79835453 58.70921637 346.0935928 49.1875 352.375 C33.14942632 362.95432615 17.09674369 373.51011801 1 384 C-6.6957694 380.03740871 -13.78791864 375.20837934 -20.95025635 370.37652588 C-24.36155914 368.08563132 -27.79592297 365.8300566 -31.23046875 363.57421875 C-31.94230316 363.10623367 -32.65413757 362.6382486 -33.38754272 362.15608215 C-34.87782845 361.17641008 -36.36823861 360.19692726 -37.85876465 359.21762085 C-41.97824969 356.51086847 -46.09647194 353.80219574 -50.21484375 351.09375 C-51.08058014 350.5244426 -51.94631653 349.95513519 -52.83828735 349.36857605 C-62.36181678 343.10541727 -71.88172812 336.83677077 -81.39981079 330.56533813 C-83.26848054 329.33417099 -85.13727103 328.1031871 -87.00619507 326.87240601 C-88.33960434 325.99426743 -88.33960434 325.99426743 -89.69995117 325.09838867 C-90.57490738 324.52363297 -91.44986359 323.94887726 -92.35133362 323.35670471 C-94.07264262 322.21878592 -95.78767191 321.07130492 -97.49595642 319.91392517 C-101.65498607 317.10952966 -105.79050255 314.53549161 -110.25537109 312.24365234 C-121.82742108 306.05244489 -121.82742108 306.05244489 -123.88989258 300.68344116 C-125.19361891 294.20108429 -124.6503143 287.79164975 -124.125 281.25 C-124.0345556 279.28161856 -123.95245276 277.31283522 -123.87890625 275.34375 C-123.68193384 270.55245395 -123.37259758 265.78071352 -123 261 C-119.64005181 262.2502218 -116.77102742 263.66225478 -113.80859375 265.67578125 C-112.54994507 266.52390381 -112.54994507 266.52390381 -111.26586914 267.38916016 C-110.33250732 268.0238623 -109.39914551 268.65856445 -108.4375 269.3125 C-106.2795753 270.76572983 -104.1208365 272.21768085 -101.9609375 273.66796875 C-101.05871208 274.27451294 -101.05871208 274.27451294 -100.13825989 274.89331055 C-91.93640068 280.39880618 -83.67533462 285.8148716 -75.42254639 291.24356079 C-60.17050482 301.27689072 -44.94510325 311.3479906 -29.7666626 321.49230957 C-19.90147153 328.08435322 -10.00220604 334.61691278 0 341 C1.79511197 339.98523739 3.5858633 338.96276095 5.375 337.9375 C6.37273437 337.36902344 7.37046875 336.80054688 8.3984375 336.21484375 C11.13536242 334.58201922 13.73552404 332.80680329 16.3359375 330.96484375 C23.84357471 325.65660522 31.56168691 320.66579699 39.25 315.625 C40.90846908 314.53604581 42.56683312 313.44693165 44.22509766 312.35766602 C47.69361044 310.07946821 51.1625798 307.80196798 54.63183594 305.52490234 C62.7000594 300.228275 70.76182961 294.92183722 78.82409668 289.6161499 C82.89029817 286.94034142 86.95687754 284.2651074 91.0234375 281.58984375 C92.3872089 280.69262979 93.75097864 279.79541331 95.11474609 278.89819336 C96.06687988 278.27178955 97.01901367 277.64538574 98 277 C93.45155409 272.14919282 87.97360433 268.6483561 82.4921875 264.95288086 C80.62706509 263.6888995 78.77884066 262.4024237 76.9296875 261.11523438 C75.73795617 260.30845078 74.54527817 259.50306341 73.3515625 258.69921875 C72.27729004 257.96533936 71.20301758 257.23145996 70.09619141 256.4753418 C66.33241689 254.68189523 64.93178728 254.70301014 61 256 C58.58470272 257.36463939 56.37728948 258.73880866 54.109375 260.3125 C53.45521606 260.75395859 52.80105713 261.19541718 52.1270752 261.6502533 C50.72362843 262.59899001 49.32332052 263.55238363 47.92590332 264.50997925 C45.73328636 266.01144521 43.53177473 267.49889936 41.32714844 268.98266602 C36.19640162 272.43812049 31.07671731 275.90979476 25.95996094 279.38592529 C22.29056496 281.87767734 18.61366314 284.35726626 14.92248535 286.81665039 C13.27751312 287.91906153 11.64399917 289.03850871 10.01074219 290.15820312 C8.52815918 291.14530273 8.52815918 291.14530273 7.015625 292.15234375 C6.16258789 292.72976318 5.30955078 293.30718262 4.43066406 293.90209961 C1.32737811 295.30381485 0.18917794 295.15773788 -3 294 C-5.26947207 292.65222368 -7.39525893 291.27921796 -9.55078125 289.76953125 C-10.89609896 288.85027146 -12.24199526 287.93185802 -13.58837891 287.01416016 C-14.30398987 286.52336975 -15.01960083 286.03257935 -15.75689697 285.5269165 C-19.65590792 282.8727967 -23.60135004 280.28944536 -27.54296875 277.69921875 C-29.27246536 276.55986331 -31.00187394 275.42037422 -32.73120117 274.28076172 C-34.54995503 273.08298896 -36.36872162 271.88523553 -38.1875 270.6875 C-41.08800597 268.77688949 -43.98844101 266.86617134 -46.88887024 264.95544434 C-48.88760615 263.63874352 -50.88637554 262.32209353 -52.88517761 261.00549316 C-59.94616152 256.35416015 -67.00481973 251.69931261 -74.0625 247.04296875 C-76.99464583 245.10888613 -79.92683437 243.17486827 -82.85903931 241.24087524 C-84.71432603 240.01698213 -86.5694544 238.79284893 -88.42440796 237.56845093 C-90.18438872 236.40678592 -91.94530484 235.24653662 -93.70721436 234.08779907 C-95.3930581 232.97290585 -97.07272859 231.848614 -98.7456665 230.71444702 C-102.73578441 228.02899615 -106.67319548 225.6032092 -111.00415039 223.50366211 C-121.91480503 217.98666918 -121.91480503 217.98666918 -123.83731079 212.69555664 C-125.08495272 206.06882453 -124.55462153 199.49300876 -124.0625 192.8125 C-123.97710322 190.79133482 -123.89955774 188.76982181 -123.83007812 186.74804688 C-123.64385027 181.8233575 -123.35149659 176.91554468 -123 172 C-106.54289163 182.41454158 -90.2575668 193.09003176 -74 203.8125 C-73.04821869 204.43985046 -72.09643738 205.06720093 -71.11581421 205.71356201 C-59.01579176 213.68970415 -46.93415268 221.69248223 -34.88314819 229.74249268 C-32.84264908 231.1048704 -30.80106914 232.46561066 -28.7590332 233.82568359 C-28.1151918 234.25453857 -27.4713504 234.68339355 -26.80799866 235.12524414 C-25.56629197 235.95229497 -24.32454337 236.77928288 -23.08274841 237.60620117 C-19.49048269 240.0002377 -15.91045844 242.411607 -12.3359375 244.83203125 C-10.78679021 245.8676841 -9.23734727 246.90289496 -7.6875 247.9375 C-7.03563721 248.38689941 -6.38377441 248.83629883 -5.7121582 249.29931641 C-2.63543237 251.46893649 -2.63543237 251.46893649 0.9675293 251.72119141 C3.00676627 250.99759909 4.64295921 250.15210274 6.46875 248.99609375 C7.44122681 248.38507813 7.44122681 248.38507813 8.43334961 247.76171875 C9.11534424 247.32472656 9.79733887 246.88773438 10.5 246.4375 C11.20326416 245.99148438 11.90652832 245.54546875 12.63110352 245.0859375 C14.75900703 243.7314882 16.880475 242.36751613 19 241 C19.6276123 240.59668457 20.25522461 240.19336914 20.90185547 239.77783203 C27.31896347 236.23226808 27.31896347 236.23226808 32 231 C31.31945557 230.76385986 30.63891113 230.52771973 29.93774414 230.28442383 C26.34959398 228.71563317 23.22244991 226.64062793 19.99609375 224.44921875 C19.32511154 223.99909927 18.65412933 223.5489798 17.96281433 223.08522034 C16.52873893 222.12257 15.09604208 221.15786337 13.66461182 220.19128418 C9.91401006 217.65881341 6.15353775 215.14106418 2.39453125 212.62109375 C1.65644226 212.12566071 0.91835327 211.63022766 0.15789795 211.11978149 C-5.32039634 207.44533084 -10.83058208 203.82400433 -16.375 200.25 C-24.07040086 195.28203119 -31.69801643 190.21576408 -39.3125 185.125 C-48.19181462 179.1899366 -57.10015361 173.30391038 -66.05688477 167.48608398 C-77.15302111 160.26824566 -88.19894545 152.97408827 -99.25 145.6875 C-100.75190384 144.69730362 -100.75190384 144.69730362 -102.28414917 143.68710327 C-106.85157268 140.67564973 -111.41873635 137.66380219 -115.98535156 134.65112305 C-116.69097229 134.18562546 -117.39659302 133.72012787 -118.12359619 133.24052429 C-122.99555291 130.01958612 -122.99555291 130.01958612 -123.46170044 127.96655273 C-123.50028168 127.13067627 -123.53886292 126.2947998 -123.57861328 125.43359375 C-123.62680206 124.48500488 -123.67499084 123.53641602 -123.72463989 122.55908203 C-123.85842683 118.19391508 -123.98131497 113.83012138 -124.05029297 109.46337891 C-124.0998088 107.1678507 -124.18148193 104.87277506 -124.29638672 102.57958984 C-125.20343143 84.37822597 -125.20343143 84.37822597 -121.79690552 79.15545654 C-118.49281947 75.90313847 -114.48420695 74.06049143 -110.31201172 72.14343262 C-106.08600467 70.05341108 -102.2799056 67.3086792 -98.38671875 64.6640625 C-96.64868186 63.51644702 -94.90872392 62.37173636 -93.16699219 61.22973633 C-79.53777757 52.26406202 -65.91290091 43.29276204 -52.34765625 34.23046875 C-51.40891159 33.60346069 -50.47016693 32.97645264 -49.50297546 32.33044434 C-45.03547583 29.34535391 -40.57030087 26.35685535 -36.1081543 23.36376953 C-27.29906006 17.46478719 -18.43266014 11.69382361 -9.40917969 6.12768555 C-6.22253776 4.15653601 -3.10590346 2.09586081 0 0 Z " fill="#030303" transform="translate(298,108)"/>
</svg>
