<?xml version="1.0" encoding="UTF-8"?>
<svg version="1.1" xmlns="http://www.w3.org/2000/svg" width="1024" height="1024">
<path d="M0 0 C337.92 0 675.84 0 1024 0 C1024 337.92 1024 675.84 1024 1024 C686.08 1024 348.16 1024 0 1024 C0 686.08 0 348.16 0 0 Z " fill="#020201" transform="translate(0,0)"/>
<path d="M0 0 C2.47797714 1.22443709 4.82833985 2.52236535 7.18310547 3.96899414 C8.51486816 4.78327881 8.51486816 4.78327881 9.87353516 5.61401367 C10.82776367 6.2029541 11.78199219 6.79189453 12.76513672 7.39868164 C13.76963867 8.01469238 14.77414062 8.63070312 15.80908203 9.26538086 C17.95810204 10.58411273 20.10601821 11.90464483 22.25292969 13.22680664 C25.56805162 15.26778052 28.88686494 17.30262832 32.20654297 19.33618164 C42.66445725 25.74875545 53.09805802 32.19579381 63.45751953 38.76635742 C70.84033735 43.44887569 78.25637203 48.07753416 85.67358398 52.70532227 C91.07772848 56.07929729 96.47172588 59.46805692 101.8503418 62.88256836 C109.47893791 67.72537263 117.16036838 72.46894729 124.89013672 77.14868164 C133.40801091 82.30763392 141.84226372 87.58160384 150.23046875 92.94848633 C158.04807656 97.94829757 165.91151623 102.8720342 173.78564453 107.78222656 C181.07567399 112.32983343 188.34743842 116.90539169 195.60375977 121.5065918 C196.32088135 121.9608252 197.03800293 122.41505859 197.77685547 122.88305664 C198.70244263 123.47038574 198.70244263 123.47038574 199.64672852 124.06958008 C201.63151288 125.36888415 201.63151288 125.36888415 204.1628418 126.42604065 C206.57763672 128.27368164 206.57763672 128.27368164 207.1789093 131.29191589 C207.16780624 132.52879654 207.15670319 133.76567719 207.14526367 135.04003906 C207.1459938 135.72322708 207.14672394 136.4064151 207.1474762 137.11030579 C207.14399396 139.36739654 207.10510898 141.62242053 207.06591797 143.87915039 C207.05659195 145.44426852 207.04947484 147.00940124 207.04447937 148.57453918 C207.02539248 152.69310844 206.97627841 156.81079538 206.92095947 160.92901611 C206.86980267 165.13167382 206.84697304 169.33447417 206.82177734 173.53735352 C206.76816015 181.78320104 206.6828283 190.02833158 206.57763672 198.27368164 C200.78874668 195.14742928 195.01689746 192.02630946 189.41357422 188.57446289 C187.83805786 187.60536987 187.83805786 187.60536987 186.23071289 186.61669922 C185.14894775 185.94662842 184.06718262 185.27655762 182.95263672 184.58618164 C181.79811131 183.87350987 180.64357009 183.16086372 179.48901367 182.44824219 C172.52709515 178.14306001 165.62176608 173.75956767 158.76953125 169.28222656 C150.69418847 164.01744863 142.47543261 158.98470709 134.26708984 153.9309082 C129.86613044 151.21906067 125.47217132 148.49592343 121.07763672 145.77368164 C115.86392143 142.54529107 110.64967431 139.31777219 105.43310547 136.09399414 C95.15933241 129.74270443 84.91040448 123.35339051 74.67578125 116.93920898 C67.69855815 112.5757757 60.68043717 108.28443794 53.64013672 104.02368164 C46.3017331 99.58212998 39.05357471 95.03554052 31.88134766 90.33105469 C25.47683354 86.15389513 18.92856012 82.22825749 12.3503418 78.33178711 C11.55523193 77.86015137 10.76012207 77.38851562 9.94091797 76.90258789 C9.18633301 76.45931152 8.43174805 76.01603516 7.65429688 75.55932617 C5.77690138 74.39704488 4.06238665 73.13727461 2.30810547 71.80102539 C-0.25741429 69.98617182 -0.25741429 69.98617182 -2.77783203 70.69946289 C-6.47018307 72.89742075 -10.12345766 75.13199655 -13.73486328 77.46118164 C-15.44277165 78.55169124 -17.15112627 79.64150217 -18.85986328 80.73071289 C-19.76349609 81.30772949 -20.66712891 81.88474609 -21.59814453 82.47924805 C-26.45761371 85.56682572 -31.34802721 88.6046822 -36.23486328 91.64868164 C-45.92447632 97.69386168 -55.57012199 103.80534127 -65.19970703 109.94555664 C-77.23395014 117.61879714 -89.31625865 125.21441691 -101.42236328 132.77368164 C-108.74243292 137.34502831 -116.06008272 141.91998464 -123.35986328 146.52368164 C-124.11710693 147.00095703 -124.87435059 147.47823242 -125.65454102 147.9699707 C-129.55786946 150.43753882 -133.44166728 152.93166831 -137.30517578 155.46118164 C-138.09158447 155.97519531 -138.87799316 156.48920898 -139.68823242 157.01879883 C-141.18500679 157.99957029 -142.67912881 158.98440527 -144.17016602 159.97387695 C-149.20255189 163.27368164 -149.20255189 163.27368164 -151.42236328 163.27368164 C-151.42236328 163.93368164 -151.42236328 164.59368164 -151.42236328 165.27368164 C-150.74818359 165.50700195 -150.07400391 165.74032227 -149.37939453 165.98071289 C-145.68875006 167.59445572 -142.45099613 169.73788213 -139.10986328 171.96118164 C-131.59091482 176.89944171 -123.99369401 181.70255493 -116.35986328 186.46118164 C-115.28244873 187.1330249 -114.20503418 187.80486816 -113.0949707 188.49707031 C-110.5381179 190.09037548 -107.98062612 191.6826418 -105.42236328 193.27368164 C-99.27878706 189.94228023 -93.31399596 186.40607829 -87.42236328 182.64868164 C-86.59841064 182.12580566 -85.77445801 181.60292969 -84.92553711 181.06420898 C-78.94403925 177.26160751 -72.98982501 173.41758326 -67.04492188 169.55810547 C-55.88446349 162.31885446 -44.64816957 155.19594196 -33.39501953 148.10180664 C-32.59733154 147.59834717 -31.79964355 147.0948877 -30.9777832 146.57617188 C-29.41418826 145.59229519 -27.84798439 144.61255105 -26.27905273 143.63720703 C-22.34545881 141.1804317 -18.5080566 138.65042727 -14.74267578 135.94165039 C-13.98446533 135.41015381 -13.22625488 134.87865723 -12.44506836 134.33105469 C-11.01186013 133.32117561 -9.59601545 132.28600861 -8.20239258 131.22216797 C-6.26014662 129.87143193 -4.70308326 128.90732832 -2.42236328 128.27368164 C0.67251487 128.93286678 2.9761091 130.5229738 5.57763672 132.27368164 C7.09886516 133.18925278 8.62104395 134.10324628 10.14404297 135.01586914 C11.81141513 136.0569315 13.47668069 137.10137328 15.14013672 138.14868164 C17.00289326 139.31228246 18.8661942 140.47501214 20.72998047 141.63696289 C21.6901709 142.23589355 22.65036133 142.83482422 23.63964844 143.4519043 C28.47253576 146.44866391 33.33881743 149.38999866 38.20263672 152.33618164 C49.18011673 158.99855381 60.03713632 165.83947909 70.87060547 172.73266602 C81.18822829 179.29285234 91.57259728 185.72671514 102.02978516 192.06225586 C108.8621796 196.20894631 115.63098781 200.44537094 122.37451172 204.73461914 C128.56222364 208.65904046 134.81085331 212.47704371 141.07763672 216.27368164 C148.8163336 220.96298852 156.50331383 225.72075665 164.13720703 230.57861328 C168.83196262 233.5590418 173.55110778 236.49693468 178.29248047 239.40258789 C178.87399368 239.75913452 179.4555069 240.11568115 180.05464172 240.48303223 C182.92890308 242.24438066 185.80527622 244.00209394 188.68432617 245.75561523 C197.51060152 251.15526666 197.51060152 251.15526666 201.65576172 254.18383789 C204.43832173 256.39095991 204.43832173 256.39095991 207.57763672 257.27368164 C207.57763672 280.37368164 207.57763672 303.47368164 207.57763672 327.27368164 C203.48421122 325.63631144 200.18878103 323.94993599 196.45654297 321.67602539 C195.88009033 321.32594925 195.3036377 320.97587311 194.7097168 320.6151886 C192.85073312 319.4844954 190.99531925 318.34809891 189.14013672 317.21118164 C187.85562609 316.42752848 186.57103926 315.6440002 185.28637695 314.8605957 C178.1388173 310.49443858 171.04057142 306.06531829 164.02294922 301.49243164 C156.8674019 296.85146183 149.56553045 292.43533394 142.30664062 287.95874023 C139.65899136 286.32391511 137.01422477 284.68454523 134.37060547 283.04321289 C125.32183175 277.42688019 116.24905355 271.85448163 107.14013672 266.33618164 C98.63235123 261.17875664 90.21997525 255.88848579 81.84301758 250.52172852 C74.40267038 245.76775011 66.87740913 241.16514839 59.32373047 236.59399414 C51.3684957 231.77361572 43.48014313 226.8517283 35.60253906 221.90576172 C27.41286666 216.77294933 19.16579479 211.7386281 10.88623047 206.75219727 C9.98517578 206.20756836 9.08412109 205.66293945 8.15576172 205.10180664 C7.36588867 204.62646484 6.57601562 204.15112305 5.76220703 203.66137695 C3.57763672 202.27368164 3.57763672 202.27368164 1.60400391 200.47192383 C-0.39677323 198.96809757 -0.39677323 198.96809757 -2.8215332 199.87719727 C-5.61887874 201.37919825 -8.33693333 202.94360188 -11.03564453 204.61743164 C-12.11217285 205.28258789 -13.18870117 205.94774414 -14.29785156 206.63305664 C-15.44358981 207.34648964 -16.58925919 208.06003324 -17.73486328 208.77368164 C-18.90377549 209.49795617 -20.07288452 210.22191315 -21.2421875 210.94555664 C-24.6389712 213.04950817 -28.03108667 215.16086452 -31.42236328 217.27368164 C-32.33969238 217.84473633 -33.25702148 218.41579102 -34.20214844 219.00415039 C-38.61418411 221.75226282 -43.02128818 224.50805137 -47.42236328 227.27368164 C-44.77240199 230.08985441 -42.23767631 232.16430899 -38.88720703 234.08618164 C-38.00540771 234.59793945 -37.1236084 235.10969727 -36.21508789 235.63696289 C-35.27286377 236.17708008 -34.33063965 236.71719727 -33.35986328 237.27368164 C-26.1139711 241.48930044 -18.92950074 245.76819643 -11.85986328 250.27368164 C-10.29476601 251.26978622 -8.7296618 252.2658799 -7.16455078 253.26196289 C-6.38563477 253.75776855 -5.60671875 254.25357422 -4.80419922 254.7644043 C8.0841542 262.93125555 21.13615661 270.83504092 34.18774414 278.73703003 C45.45164283 285.55979446 56.62458434 292.52215938 67.77978516 299.52124023 C80.45875279 307.4627437 93.21191805 315.28118937 105.99853516 323.04785156 C113.17609965 327.41100442 120.32583456 331.81726415 127.46362305 336.24511719 C134.38838155 340.54028586 141.32444349 344.81681341 148.26513672 349.08618164 C149.35165527 349.75472168 150.43817383 350.42326172 151.55761719 351.11206055 C157.15098869 354.55305856 162.74607305 357.99123991 168.34326172 361.42602539 C178.47013052 367.64355459 188.58812852 373.8731026 198.64013672 380.21118164 C199.43798584 380.71359375 200.23583496 381.21600586 201.05786133 381.73364258 C206.45214441 385.14818934 206.45214441 385.14818934 207.57763672 386.27368164 C207.75089474 388.40202068 207.85358279 390.53612582 207.92919922 392.67016602 C207.95343964 393.33860535 207.97768005 394.00704468 208.00265503 394.69573975 C208.21457835 400.88553022 208.3389785 407.07756027 208.43695068 413.27010345 C208.50389554 417.4301224 208.59928205 421.58504546 208.76416016 425.74243164 C208.92295407 429.76418531 209.00682109 433.78129825 209.03973389 437.8059845 C209.0647951 439.33430505 209.11585139 440.86244266 209.19415283 442.38896179 C209.43488909 447.30670024 209.35058037 451.59642126 207.57763672 456.27368164 C203.89630933 460.07928145 199.1442507 462.28291746 194.37423134 464.43274689 C191.93241129 465.57569328 189.70301111 466.9880527 187.44873047 468.46118164 C186.34368164 469.16017578 186.34368164 469.16017578 185.21630859 469.87329102 C184.48992187 470.33541992 183.76353516 470.79754883 183.01513672 471.27368164 C181.81147461 472.03648437 181.81147461 472.03648437 180.58349609 472.81469727 C175.34656767 476.13740924 170.12604002 479.48497714 164.9140625 482.84667969 C157.65307509 487.52429079 150.33983888 492.11951823 143.03320312 496.7253418 C139.83535854 498.74171984 136.63903235 500.76049613 133.44287109 502.77954102 C131.06480219 504.28178933 128.68645321 505.78359358 126.30810547 507.28540039 C123.20556637 509.24479816 120.1040639 511.20582079 117.00341797 513.16821289 C108.21157558 518.73039889 99.40256569 524.26412231 90.57763672 529.77368164 C77.56161227 537.90086059 64.58071252 546.08130339 51.64233398 554.33154297 C40.7973623 561.24565736 29.92013672 568.10541267 18.99169922 574.88696289 C15.74717511 576.90369255 12.53025224 578.9484977 9.35107422 581.06665039 C8.45110718 581.65567139 8.45110718 581.65567139 7.53295898 582.2565918 C6.03559958 583.24058991 4.55007176 584.24253263 3.06591797 585.24633789 C0.57763672 586.27368164 0.57763672 586.27368164 -1.73876953 585.76586914 C-5.4402438 583.70769859 -9.07245815 581.56730449 -12.67236328 579.33618164 C-13.46884277 578.84601562 -14.26532227 578.35584961 -15.0859375 577.85083008 C-20.97960565 574.2076411 -26.80435088 570.46520099 -32.60742188 566.67993164 C-39.81400974 561.99047734 -47.10968292 557.44653419 -54.40600586 552.8984375 C-60.69377455 548.97897703 -66.97242445 545.04599307 -73.23486328 541.08618164 C-74.00419189 540.59996338 -74.77352051 540.11374512 -75.56616211 539.61279297 C-79.34878133 537.22101312 -83.12892154 534.82538289 -86.90673828 532.42602539 C-95.9714143 526.67591357 -105.08387471 521.01052873 -114.23486328 515.39868164 C-123.35867687 509.8029997 -132.42245269 504.12420915 -141.43847656 498.35668945 C-147.62993109 494.40056779 -153.85637196 490.5059323 -160.10986328 486.64868164 C-177.46084339 475.94608731 -177.46084339 475.94608731 -182.07945251 472.84815979 C-186.10994785 470.19273078 -189.91837126 467.98674755 -194.45239258 466.30810547 C-200.13272754 463.96860603 -204.89379971 461.44841888 -208.42236328 456.27368164 C-211.45030671 445.74380949 -210.30121648 434.27948462 -209.72698975 423.46392822 C-209.53110692 419.38284881 -209.4455416 415.29953176 -209.35009766 411.21508789 C-209.14747994 403.22845621 -208.82419473 395.2527622 -208.42236328 387.27368164 C-206.84608304 388.04931066 -205.27125352 388.8278883 -203.69702148 389.60766602 C-202.38130913 390.25753479 -202.38130913 390.25753479 -201.03901672 390.92053223 C-197.07442502 392.97074066 -193.35300199 395.348899 -189.60986328 397.77368164 C-187.94506184 398.8383648 -186.2796758 399.90213428 -184.61376953 400.96508789 C-183.76057129 401.51052246 -182.90737305 402.05595703 -182.02832031 402.61791992 C-177.72420541 405.35264985 -173.3864919 408.03247725 -169.04736328 410.71118164 C-168.17426514 411.2506543 -167.30116699 411.79012695 -166.40161133 412.34594727 C-164.62776796 413.44175281 -162.85376053 414.53729284 -161.07958984 415.63256836 C-156.69158448 418.34261724 -152.3071869 421.05848907 -147.92236328 423.77368164 C-147.05482422 424.31057617 -146.18728516 424.8474707 -145.29345703 425.40063477 C-140.94152705 428.09391684 -136.59084734 430.78917917 -132.24267578 433.48852539 C-130.51101032 434.56291399 -128.77923924 435.63713239 -127.04736328 436.71118164 C-125.76007324 437.50951416 -125.76007324 437.50951416 -124.44677734 438.32397461 C-118.85904578 441.78279915 -113.24947236 445.20378841 -107.62841797 448.6081543 C-99.25965495 453.67724151 -90.95387396 458.81168067 -82.76416016 464.1652832 C-73.75778028 470.03956808 -64.57869159 475.63735298 -55.42236328 481.27368164 C-44.4649031 488.02253191 -33.53252099 494.80651004 -22.67236328 501.71118164 C-21.77976807 502.27828857 -20.88717285 502.84539551 -19.9675293 503.4296875 C-18.68446899 504.24771851 -18.68446899 504.24771851 -17.37548828 505.08227539 C-16.54855469 505.60805176 -15.72162109 506.13382813 -14.86962891 506.67553711 C-13.21211441 507.75794831 -11.57548515 508.87291004 -9.95947266 510.01635742 C-9.17894531 510.56662598 -8.39841797 511.11689453 -7.59423828 511.68383789 C-6.90942383 512.18149658 -6.22460938 512.67915527 -5.51904297 513.19189453 C-2.90504248 514.54059459 -1.33183465 514.63608548 1.57763672 514.27368164 C3.70604208 513.32351014 3.70604208 513.32351014 5.70263672 511.88696289 C6.4806665 511.36739014 7.25869629 510.84781738 8.06030273 510.3125 C8.89102295 509.74281494 9.72174316 509.17312988 10.57763672 508.58618164 C12.37701721 507.38356232 14.17784479 506.18310585 15.97998047 504.98461914 C17.36805908 504.05794434 17.36805908 504.05794434 18.78417969 503.11254883 C23.1793154 500.21933417 27.65547736 497.46280886 32.14013672 494.71118164 C38.85093727 490.58060025 45.54363453 486.42483419 52.20263672 482.21118164 C52.9823584 481.71779297 53.76208008 481.2244043 54.56542969 480.71606445 C56.90319929 479.23584912 59.24042808 477.75478251 61.57763672 476.27368164 C64.63938375 474.33498944 67.7019229 472.39755542 70.76513672 470.46118164 C71.53833252 469.97238525 72.31152832 469.48358887 73.1081543 468.97998047 C79.5215181 464.93043102 85.95481983 460.91322357 92.39013672 456.89868164 C101.98205146 450.91260643 111.53769769 444.87229657 121.06591797 438.78540039 C124.96990582 436.2925775 128.8856308 433.81934063 132.80810547 431.35571289 C133.82565918 430.71448486 134.84321289 430.07325684 135.89160156 429.41259766 C137.85435444 428.17616881 139.81944069 426.94343445 141.78710938 425.71484375 C142.66286621 425.1619165 143.53862305 424.60898926 144.44091797 424.03930664 C145.21733643 423.55236328 145.99375488 423.06541992 146.79370117 422.5637207 C148.71553657 421.38348072 148.71553657 421.38348072 149.57763672 419.27368164 C148.8519751 419.00217285 148.12631348 418.73066406 147.37866211 418.45092773 C144.65148147 417.30471794 142.27650709 415.98918577 139.76123047 414.43774414 C138.38124878 413.59095093 138.38124878 413.59095093 136.97338867 412.72705078 C135.99716553 412.12368896 135.02094238 411.52032715 134.01513672 410.89868164 C131.95531948 409.63943848 129.89542204 408.38032652 127.83544922 407.12133789 C123.79910314 404.64537041 119.77487133 402.15110353 115.75732422 399.64477539 C113.96838525 398.54171044 112.17932843 397.4388366 110.39013672 396.33618164 C109.5598999 395.81040527 108.72966309 395.28462891 107.87426758 394.74291992 C107.10219971 394.26967285 106.33013184 393.79642578 105.53466797 393.30883789 C104.86411377 392.88997314 104.19355957 392.4711084 103.50268555 392.03955078 C101.05460211 391.06559545 100.01446536 391.34462001 97.57763672 392.27368164 C95.78698011 393.16246213 95.78698011 393.16246213 94.02294922 394.28540039 C93.33724854 394.70619873 92.65154785 395.12699707 91.94506836 395.56054688 C90.8350647 396.25386108 90.8350647 396.25386108 89.70263672 396.96118164 C88.91816162 397.44594971 88.13368652 397.93071777 87.32543945 398.43017578 C79.18494922 403.47863448 71.11002456 408.63147019 63.03857422 413.78930664 C57.96027835 417.03382324 52.8648366 420.25045383 47.76513672 423.46118164 C41.15070469 427.62922687 34.5732916 431.850333 28.01904297 436.11230469 C21.65966537 440.24007269 15.24777412 444.28294275 8.81982422 448.30297852 C8.06314453 448.77799805 7.30646484 449.25301758 6.52685547 449.74243164 C5.86000732 450.15944336 5.19315918 450.57645508 4.50610352 451.00610352 C2.50174276 452.28062317 2.50174276 452.28062317 0.46875 453.96142578 C-0.15531738 454.39447021 -0.77938477 454.82751465 -1.42236328 455.27368164 C-6.39225903 454.20933229 -10.88086219 450.56624203 -15.10986328 447.83618164 C-16.82790696 446.73872096 -18.54667335 445.64239095 -20.26611328 444.54711914 C-21.13236328 443.99507812 -21.99861328 443.44303711 -22.89111328 442.87426758 C-26.60439369 440.52624806 -30.35397185 438.24020046 -34.10986328 435.96118164 C-41.146353 431.68523307 -48.13441042 427.3359308 -55.10986328 422.96118164 C-63.07641175 417.96751898 -71.07175388 413.02633399 -79.10986328 408.14868164 C-92.89459048 399.78389042 -106.60130418 391.29761682 -120.26464844 382.73608398 C-133.87276194 374.21102044 -147.56821692 365.83720892 -161.30908203 357.52807617 C-172.13906504 350.97856722 -182.92746814 344.37449735 -193.60986328 337.58618164 C-194.53677979 336.99772461 -195.46369629 336.40926758 -196.41870117 335.80297852 C-201.30995906 332.67974994 -201.30995906 332.67974994 -203.42236328 331.27368164 C-204.46355064 330.69709305 -204.46355064 330.69709305 -205.52577209 330.1088562 C-207.42236328 328.27368164 -207.42236328 328.27368164 -207.90338135 325.25544739 C-207.89005768 323.40012642 -207.89005768 323.40012642 -207.87646484 321.50732422 C-207.87704895 320.8241362 -207.87763306 320.14094818 -207.87823486 319.4370575 C-207.87544943 317.18025793 -207.84433885 314.92478148 -207.81298828 312.66821289 C-207.80552745 311.10309063 -207.79983377 309.53795903 -207.7958374 307.9728241 C-207.78056844 303.85440252 -207.74127639 299.73654569 -207.69702148 295.61834717 C-207.65609562 291.41564575 -207.63783217 287.21285304 -207.61767578 283.01000977 C-207.57478278 274.76430796 -207.50651688 266.51906506 -207.42236328 258.27368164 C-205.6781728 259.21706096 -203.93495387 260.16223667 -202.19213867 261.1081543 C-201.22127823 261.63430328 -200.25041779 262.16045227 -199.25013733 262.70254517 C-195.35225312 264.86824439 -191.60580728 267.23272115 -187.85986328 269.64868164 C-180.13456491 274.57830013 -172.35728561 279.4167905 -164.54736328 284.21118164 C-162.31037759 285.58486893 -160.07339838 286.95856677 -157.83642578 288.33227539 C-156.75135742 288.99855957 -155.66628906 289.66484375 -154.54833984 290.35131836 C-149.99992629 293.14842929 -145.46053246 295.95999041 -140.92236328 298.77368164 C-134.26396348 302.90141469 -127.59611788 307.01338073 -120.92114258 311.11425781 C-110.29091667 317.64538459 -99.68779898 324.21725562 -89.11279297 330.83740234 C-75.49701778 339.3601939 -61.8423113 347.81507676 -48.10986328 356.14868164 C-39.89028382 361.13936612 -31.70463978 366.18176606 -23.54736328 371.27368164 C-22.56727295 371.88453613 -21.58718262 372.49539063 -20.57739258 373.12475586 C-14.79233673 376.7449622 -9.07632271 380.45187805 -3.42236328 384.27368164 C1.17229119 382.03421589 5.50865288 379.39986707 9.89013672 376.77368164 C11.22177856 375.97607422 11.22177856 375.97607422 12.58032227 375.16235352 C18.71531513 371.46095378 24.73256875 367.62220335 30.64331055 363.57250977 C34.522989 360.92225504 38.47791468 358.55996516 42.57763672 356.27368164 C39.30736693 353.58043198 36.00185606 351.18456958 32.40185547 348.95336914 C31.41741455 348.34090332 30.43297363 347.7284375 29.41870117 347.09741211 C27.85768677 346.13279053 27.85768677 346.13279053 26.26513672 345.14868164 C24.08543928 343.79453097 21.90575178 342.4403643 19.72607422 341.08618164 C18.66743164 340.43004883 17.60878906 339.77391602 16.51806641 339.09790039 C13.42271627 337.17757025 10.33374102 335.24736764 7.24731445 333.31274414 C-5.08743832 325.58143072 -17.47028301 317.92648997 -29.87548828 310.30883789 C-39.65213455 304.30481506 -49.42631252 298.30207384 -59.10986328 292.14868164 C-66.92240924 287.18547655 -74.81374094 282.35983116 -82.72680664 277.55883789 C-95.89199857 269.56886762 -108.98493724 261.46732702 -121.98486328 253.21118164 C-129.30645211 248.56303921 -136.71099275 244.06952297 -144.15966797 239.62841797 C-149.86451924 236.22274409 -155.51507896 232.74241323 -161.13623047 229.20068359 C-167.89432949 224.95295146 -174.72396309 220.82362112 -181.56420898 216.7097168 C-183.44231 215.57368325 -185.29737846 214.39897005 -187.1315918 213.19335938 C-189.77775523 211.64971496 -191.99615128 210.66339453 -194.83618164 209.63720703 C-200.09662262 207.46128793 -204.26303041 205.13860825 -207.42236328 200.27368164 C-210.50632253 190.37364134 -210.25938254 179.83521047 -210.13305664 169.56103516 C-210.09583747 166.24315388 -210.15781039 162.95239074 -210.31762695 159.63818359 C-211.5787387 133.27877268 -211.5787387 133.27877268 -204.92486572 125.26620483 C-198.80333478 120.15800696 -192.11991975 116.92584636 -184.78463745 113.81869507 C-179.27969461 111.28909451 -174.40433906 107.88087821 -169.42236328 104.46118164 C-162.02872463 99.58151431 -154.56713903 94.84823717 -146.98681641 90.26464844 C-141.58966768 86.99932496 -136.24742509 83.65517971 -130.92236328 80.27368164 C-124.85354425 76.42168704 -118.75510518 72.62750101 -112.60986328 68.89868164 C-104.94317974 64.24303373 -97.37349271 59.44465623 -89.81689453 54.61279297 C-83.44895701 50.54679381 -77.04339323 46.54745871 -70.60986328 42.58618164 C-63.71002174 38.33543181 -56.87218809 34.00599378 -50.08520508 29.57763672 C-42.8971717 24.90184411 -35.61919839 20.37145436 -28.328125 15.85839844 C-23.58987751 12.91737801 -18.89100281 9.94692004 -14.28564453 6.80102539 C-13.51027344 6.27637695 -12.73490234 5.75172852 -11.93603516 5.21118164 C-10.50863266 4.2384708 -9.09116291 3.25095735 -7.68603516 2.24633789 C-3.03348293 -0.90955571 -3.03348293 -0.90955571 0 0 Z " fill="#FCFCFD" transform="translate(511.42236328125,207.726318359375)"/>
</svg>
