<svg width="1024" height="1024" viewBox="0 0 1024 1024" fill="none" xmlns="http://www.w3.org/2000/svg">
<rect width="1024" height="1024" fill="black"/>
<path d="M512 51C766.603 51 973 257.397 973 512C973 766.603 766.603 973 512 973C257.397 973 51 766.603 51 512C51 257.397 257.397 51 512 51Z" fill="black" stroke="white" stroke-width="40"/>
<rect width="192" height="171" transform="translate(752 74)" fill="black"/>
<path d="M896 131C896 119.662 890.943 108.788 881.941 100.771C872.939 92.754 860.73 88.25 848 88.25C835.27 88.25 823.061 92.754 814.059 100.771C805.057 108.788 800 119.662 800 131C800 180.875 776 195.125 776 195.125H920C920 195.125 896 180.875 896 131Z" fill="white"/>
<path d="M861.84 223.625C860.434 225.784 858.415 227.577 855.986 228.823C853.557 230.069 850.803 230.725 848 230.725C845.197 230.725 842.443 230.069 840.014 228.823C837.585 227.577 835.566 225.784 834.16 223.625" fill="white"/>
<path d="M861.84 223.625C860.434 225.784 858.415 227.577 855.986 228.823C853.557 230.069 850.803 230.725 848 230.725C845.197 230.725 842.443 230.069 840.014 228.823C837.585 227.577 835.566 225.784 834.16 223.625M896 131C896 119.662 890.943 108.788 881.941 100.771C872.939 92.754 860.73 88.25 848 88.25C835.27 88.25 823.061 92.754 814.059 100.771C805.057 108.788 800 119.662 800 131C800 180.875 776 195.125 776 195.125H920C920 195.125 896 180.875 896 131Z" stroke="black" stroke-width="10" stroke-linecap="round" stroke-linejoin="round"/>
<rect x="151" y="838" width="192" height="171" rx="10" fill="black"/>
<path d="M303 866.5H191C182.163 866.5 175 872.88 175 880.75V980.5C175 988.37 182.163 994.75 191 994.75H303C311.837 994.75 319 988.37 319 980.5V880.75C319 872.88 311.837 866.5 303 866.5Z" fill="white"/>
<path d="M279 852.25V880.75M215 852.25V880.75M175 909.25H319M191 866.5H303C311.837 866.5 319 872.88 319 880.75V980.5C319 988.37 311.837 994.75 303 994.75H191C182.163 994.75 175 988.37 175 980.5V880.75C175 872.88 182.163 866.5 191 866.5Z" stroke="black" stroke-width="10" stroke-linecap="round" stroke-linejoin="round"/>
<rect width="512" height="512" transform="translate(256 256)" fill="black"/>
<path d="M512 277.333V746.667M618.667 362.667H458.667C438.864 362.667 419.872 370.533 405.869 384.536C391.867 398.539 384 417.531 384 437.333C384 457.136 391.867 476.128 405.869 490.131C419.872 504.133 438.864 512 458.667 512H565.333C585.136 512 604.128 519.867 618.131 533.869C632.133 547.872 640 566.864 640 586.667C640 606.47 632.133 625.461 618.131 639.464C604.128 653.467 585.136 661.333 565.333 661.333H384" stroke="white" stroke-width="40" stroke-linecap="round" stroke-linejoin="round"/>
</svg>
